# xmcd
#
# Track frame offsets:
#	150
#	19290
#	33217
#	47300
#	66607
#	79652
#	98827
#	120970
#	140567
#	159237
#	179592
#	196617
#	214760
#	230895
#	244507
#	264715
#	282685
#	301035
#
# Disc length: 4252 seconds
#
# Revision: 1
# Processed by: cddbd v1.5.1PL2 Copyright (c) Steve Scherf et al.
# Submitted via: dBpowerAMP V4.0
#
DISCID=f7109a12
DTITLE=Various Artist - XXL RAPS Volume 1
DYEAR=2005
DGENRE=Rap
TTITLE0=Eminem - Evil Deeds
TTITLE1=50 Cent - Ski Mask Way
TTITLE2=Lloyd Banks - On Fire
TTITLE3=Young Buck - Bonafide Hustler
TTITLE4=Tony Yayo - Live By The Gum
TTITLE5=Fabolous - Ghetto
TTITLE6=T.I. - My Life
TTITLE7=Lil Jon and The East Side Boyz - Get Crunk
TTITLE8=Paul Wall - Trill
TTITLE9=David Banner - Bloody War
TTITLE10=Remy Ma - Whuteva
TTITLE11=Fat Joe - Safe 2 Say (The Incredible)
TTITLE12=Young Gunz - Set it Off
TTITLE13=Memphis Bleek - First, Last and Only
TTITLE14=Jim Jones - G's Up
TTITLE15=Common - The Food
TTITLE16=Obie Trice - Wanna Know
TTITLE17=Trick Daddy - The Children's Song
EXTD=
EXTT0=
EXTT1=
EXTT2=
EXTT3=
EXTT4=
EXTT5=
EXTT6=
EXTT7=
EXTT8=
EXTT9=
EXTT10=
EXTT11=
EXTT12=
EXTT13=
EXTT14=
EXTT15=
EXTT16=
EXTT17=
PLAYORDER=
